<svg xmlns="http://www.w3.org/2000/svg" width="48" height="48" viewBox="0 0 48 48" shape-rendering="crispEdges">
  <defs>
    <filter id="shadow" x="-20%" y="-20%" width="140%" height="140%">
      <feDropShadow dx="0" dy="1" stdDeviation="1" flood-color="#000000" flood-opacity="0.5"/>
    </filter>
  </defs>
  <g filter="url(#shadow)">
    <path
      d="M8 8
         L13 8
         L16 11
         L16 18
         L18 16
         L23 16
         L25 18
         L25 21
         L27 19
         L32 19
         L34 21
         L34 24
         L36 22
         L40 22
         L42 24
         L42 30
         L39 33
         L39 36
         L34 41
         L24 41
         L19 36
         L17 28
         L15 24
         L12 22
         L9 18
         L8 14
         Z"
      fill="#f1d7b8"
      stroke="#0b0606"
      stroke-width="2.5"
      stroke-linejoin="round"
      stroke-linecap="round"
    />
    <path
      d="M10 10 L12 10 L14 12 L14 18"
      fill="none"
      stroke="#fff1df"
      stroke-width="1.5"
      stroke-linecap="round"
      stroke-linejoin="round"
      opacity="0.8"
    />
    <path
      d="M16 24
         C18 25, 19 27, 19 29
         C19 31, 18 33, 17 34
         C15 33, 14 31, 14 29
         C14 27, 15 25, 16 24 Z"
      fill="#a00018"
      opacity="0.9"
    />
    <path
      d="M22 39
         C23 41, 23 43, 22 45
         C20 44, 19 42, 19 40
         C20 39, 21 39, 22 39 Z"
      fill="#b3001b"
    />
    <path
      d="M29 39
         C30 41, 30 43, 29 45
         C27 44, 26 42, 26 40
         C27 39, 28 39, 29 39 Z"
      fill="#cb122d"
    />
    <circle cx="17" cy="36" r="2.2" fill="#d11533"/>
    <circle cx="35" cy="34" r="1.9" fill="#8c0014"/>
  </g>
</svg>
