<svg xmlns="http://www.w3.org/2000/svg" viewBox="0 0 128 128" role="img" aria-label="Lunchbox icon">
  <defs>
    <linearGradient id="lidGrad" x1="0" y1="0" x2="0" y2="1">
      <stop offset="0%" stop-color="#ff6a54"/>
      <stop offset="100%" stop-color="#d83c2b"/>
    </linearGradient>
    <linearGradient id="bodyGrad" x1="0" y1="0" x2="0" y2="1">
      <stop offset="0%" stop-color="#f7efe2"/>
      <stop offset="100%" stop-color="#ddcfbb"/>
    </linearGradient>
    <linearGradient id="trimGrad" x1="0" y1="0" x2="1" y2="1">
      <stop offset="0%" stop-color="#1e4f7c"/>
      <stop offset="100%" stop-color="#143553"/>
    </linearGradient>
  </defs>

  <ellipse cx="64" cy="109" rx="40" ry="7" fill="#102233" opacity="0.14"/>

  <path d="M18 49c0-15 12-27 46-27s46 12 46 27v3H18z" fill="url(#lidGrad)"/>
  <rect x="18" y="49" width="92" height="8" rx="4" fill="url(#trimGrad)"/>
  <rect x="20" y="56" width="88" height="50" rx="14" fill="url(#bodyGrad)" stroke="#b5a58c" stroke-width="2"/>
  <rect x="20" y="56" width="88" height="7" rx="3.5" fill="#fdf7ee" opacity="0.85"/>
  <rect x="20" y="98" width="88" height="8" rx="4" fill="url(#trimGrad)"/>

  <path d="M42 25v-7c0-7 9-12 22-12s22 5 22 12v7" fill="none" stroke="url(#trimGrad)" stroke-width="8" stroke-linecap="round" stroke-linejoin="round"/>
  <path d="M42 25v-7c0-5 8-8 22-8s22 3 22 8v7" fill="none" stroke="#76a6d4" stroke-width="2" stroke-linecap="round" stroke-linejoin="round" opacity="0.65"/>

  <rect x="51" y="45" width="26" height="15" rx="6" fill="#fff5e7" stroke="#b85f32" stroke-width="2"/>
  <rect x="56" y="50" width="16" height="4" rx="2" fill="#d83c2b" opacity="0.9"/>

  <rect x="36" y="71" width="56" height="18" rx="9" fill="#fffaf2" opacity="0.95"/>
  <path d="M51 76h-5v5h-5v4h5v5h5v-5h5v-4h-5z" fill="url(#trimGrad)"/>
  <circle cx="74" cy="79" r="3.5" fill="#1e4f7c"/>
  <circle cx="83" cy="83" r="3.5" fill="#1e4f7c"/>
</svg>
